<svg width="234" height="48" viewBox="0 0 234 48" fill="none" xmlns="http://www.w3.org/2000/svg">
<g filter="url(#filter0_i_20074_6706)">
<g clip-path="url(#clip0_20074_6706)">
<path fill-rule="evenodd" clip-rule="evenodd" d="M48 0H0V48H48V0ZM36.6254 11.5794C33.6016 8.55351 29.6426 6.80146 25.3938 6.59265L24.5404 6.57153C15.124 6.57153 7.4602 14.2311 7.45642 23.6458C7.45519 26.6554 8.24186 29.5927 9.73689 32.1823L7.31317 41.0307L16.3696 38.6562C18.8649 40.0166 21.6743 40.7335 24.5336 40.7345H24.5407C33.9561 40.7345 41.6206 33.0742 41.6245 23.6593C41.6262 19.0969 39.8508 14.8068 36.6254 11.5794ZM17.3078 35.8725L16.7892 35.5649L11.415 36.974L12.8495 31.7368L12.5119 31.1997C11.0905 28.9402 10.3398 26.3285 10.3409 23.6467C10.344 15.8217 16.7139 9.45553 24.5463 9.45553C28.3389 9.45676 31.904 10.935 34.585 13.6178C37.2659 16.3004 38.7414 19.8661 38.7399 23.6583C38.7368 31.4839 32.367 37.8508 24.5406 37.8508H24.5348C21.9869 37.8498 19.4879 37.1656 17.3078 35.8725ZM32.5627 27.3356C32.8604 27.4794 33.0615 27.5764 33.1473 27.7198C33.2541 27.8977 33.2541 28.7519 32.8984 29.7487C32.5427 30.7452 30.8373 31.6549 30.0172 31.7774C29.2816 31.8873 28.3511 31.933 27.3285 31.6083C26.7086 31.4117 25.9134 31.1492 24.895 30.7096C20.8933 28.9824 18.1889 25.1059 17.6777 24.3731C17.6419 24.3217 17.6169 24.2858 17.6029 24.2672L17.5991 24.2622C17.3722 23.9595 15.8598 21.9419 15.8598 19.8536C15.8598 17.8881 16.8259 16.8579 17.2704 16.3838C17.3008 16.3514 17.3288 16.3216 17.3539 16.2943C17.7451 15.867 18.2076 15.7603 18.4922 15.7603C18.7767 15.7603 19.0616 15.763 19.3103 15.7754C19.3409 15.7769 19.3729 15.7767 19.4058 15.7765C19.6546 15.7751 19.9648 15.7733 20.2708 16.5078C20.3884 16.7902 20.5604 17.2089 20.7419 17.6506C21.1093 18.5446 21.5154 19.5328 21.5869 19.6758C21.6936 19.8894 21.7647 20.1385 21.6225 20.4232C21.6011 20.4661 21.5813 20.5065 21.5623 20.545C21.4555 20.7631 21.3769 20.9234 21.1956 21.135C21.1245 21.2181 21.051 21.3075 20.9774 21.397C20.8304 21.576 20.6833 21.755 20.5552 21.8825C20.3415 22.0952 20.1191 22.3262 20.3681 22.7533C20.6171 23.1804 21.4738 24.5775 22.7428 25.7089C24.1071 26.9251 25.2928 27.4392 25.8937 27.6997C26.0109 27.7505 26.1059 27.7917 26.1756 27.8266C26.6024 28.0401 26.8514 28.0045 27.1003 27.7198C27.3494 27.435 28.1675 26.4739 28.452 26.0468C28.7365 25.6198 29.0212 25.691 29.4124 25.8332C29.8037 25.9757 31.9024 27.0078 32.3293 27.2214C32.4126 27.2631 32.4905 27.3007 32.5627 27.3356Z" fill="white"/>
</g>
</g>
<g filter="url(#filter1_i_20074_6706)">
<g clip-path="url(#clip1_20074_6706)">
<path fill-rule="evenodd" clip-rule="evenodd" d="M110 0H62V48H110V0ZM78.8039 6.65093C80.6656 6.5662 81.2605 6.54547 86.0007 6.54547H85.9953C90.7369 6.54547 91.3297 6.5662 93.1914 6.65093C95.0495 6.73602 96.3186 7.0302 97.4313 7.46183C98.5803 7.90729 99.5512 8.50365 100.522 9.47456C101.493 10.4447 102.089 11.4186 102.537 12.5666C102.966 13.6764 103.26 14.9447 103.347 16.8029C103.431 18.6647 103.453 19.2597 103.453 24C103.453 28.7404 103.431 29.3338 103.347 31.1957C103.26 33.0531 102.966 34.3218 102.537 35.432C102.089 36.5797 101.493 37.5535 100.522 38.5237C99.5523 39.4946 98.58 40.0924 97.4324 40.5382C96.3219 40.9698 95.0521 41.264 93.194 41.3491C91.3322 41.4338 90.7391 41.4546 85.9985 41.4546C81.2587 41.4546 80.6642 41.4338 78.8024 41.3491C76.9446 41.264 75.676 40.9698 74.5654 40.5382C73.4182 40.0924 72.4444 39.4946 71.4746 38.5237C70.5041 37.5535 69.9078 36.5797 69.4616 35.4317C69.0303 34.3218 68.7362 33.0535 68.6507 31.1953C68.5663 29.3335 68.5453 28.7404 68.5453 24C68.5453 19.2597 68.5671 18.6644 68.6503 16.8026C68.734 14.9451 69.0285 13.6764 69.4612 12.5662C69.9085 11.4186 70.5048 10.4447 71.4757 9.47456C72.4459 8.50402 73.4197 7.90765 74.5676 7.46183C75.6774 7.0302 76.9457 6.73602 78.8039 6.65093ZM85.419 9.69075C85.066 9.6906 84.739 9.69045 84.435 9.69093V9.68656C81.182 9.6902 80.558 9.71202 78.9479 9.78474C77.2461 9.86293 76.3221 10.1466 75.7069 10.3866C74.8923 10.7037 74.3105 11.0818 73.6996 11.6927C73.0888 12.3037 72.7099 12.8855 72.3935 13.7C72.1546 14.3153 71.8702 15.2389 71.7924 16.9407C71.7088 18.7807 71.6921 19.3306 71.6921 23.9917C71.6921 28.6527 71.7088 29.2055 71.7924 31.0455C71.8699 32.7473 72.1546 33.6709 72.3935 34.2855C72.7106 35.1004 73.0888 35.6807 73.6996 36.2917C74.3105 36.9026 74.8923 37.2807 75.7069 37.5971C76.3225 37.836 77.2461 38.1204 78.9479 38.1989C80.7878 38.2826 81.3401 38.3007 86.0007 38.3007C90.6609 38.3007 91.2137 38.2826 93.0536 38.1989C94.7554 38.1211 95.6797 37.8375 96.2942 37.5975C97.1091 37.2811 97.6891 36.9029 98.3 36.292C98.9109 35.6815 99.2898 35.1015 99.6061 34.2869C99.845 33.6724 100.129 32.7487 100.207 31.0469C100.291 29.2069 100.309 28.6542 100.309 23.996C100.309 19.3378 100.291 18.7851 100.207 16.9451C100.13 15.2433 99.845 14.3197 99.6061 13.7051C99.2891 12.8906 98.9109 12.3087 98.3 11.6978C97.6895 11.0869 97.1088 10.7087 96.2942 10.3924C95.679 10.1535 94.7554 9.86911 93.0536 9.79129C91.2133 9.70765 90.6609 9.69093 86.0007 9.69093C85.7993 9.69093 85.6055 9.69084 85.419 9.69075ZM93.2231 14.6829C93.2231 13.5262 94.1612 12.5891 95.3175 12.5891V12.5884C96.4739 12.5884 97.412 13.5266 97.412 14.6829C97.412 15.8393 96.4739 16.7775 95.3175 16.7775C94.1612 16.7775 93.2231 15.8393 93.2231 14.6829ZM77.0374 24C77.0374 19.05 81.0505 15.0366 86.0004 15.0364C90.9504 15.0364 94.9626 19.0498 94.9626 24C94.9626 28.9502 90.9508 32.9618 86.0007 32.9618C81.0507 32.9618 77.0374 28.9502 77.0374 24ZM91.8187 24C91.8187 20.7866 89.2137 18.1818 86.0007 18.1818C82.7874 18.1818 80.1827 20.7866 80.1827 24C80.1827 27.2131 82.7874 29.8182 86.0007 29.8182C89.2137 29.8182 91.8187 27.2131 91.8187 24Z" fill="white"/>
</g>
</g>
<g filter="url(#filter2_i_20074_6706)">
<g clip-path="url(#clip2_20074_6706)">
<path fill-rule="evenodd" clip-rule="evenodd" d="M172 0H124V48H172V0ZM134.774 14.9066C137.074 14.9066 138.938 13.0423 138.938 10.7426C138.938 8.44289 137.074 6.57861 134.774 6.57861C132.474 6.57861 130.61 8.44289 130.61 10.7426C130.61 13.0423 132.474 14.9066 134.774 14.9066ZM142.751 17.9839H149.652V21.1453C149.652 21.1453 151.525 17.3999 156.62 17.3999C161.166 17.3999 164.931 19.639 164.931 26.464V40.856H157.779V28.2079C157.779 24.1818 155.63 23.739 153.992 23.739C150.593 23.739 150.011 26.671 150.011 28.7331V40.856H142.751V17.9839ZM138.404 17.9839H131.144V40.856H138.404V17.9839Z" fill="white"/>
</g>
</g>
<g filter="url(#filter3_i_20074_6706)">
<g clip-path="url(#clip3_20074_6706)">
<path fill-rule="evenodd" clip-rule="evenodd" d="M234 0H186V48H234V0ZM223.338 19.0515C223.338 18.7517 223.335 18.452 223.323 18.1522C224.565 17.1847 225.639 15.972 226.493 14.5956C225.355 15.1407 224.128 15.5084 222.841 15.6719C224.156 14.827 225.163 13.4782 225.639 11.8702C224.409 12.6605 223.05 13.2329 221.599 13.5327C220.44 12.1972 218.789 11.3658 216.961 11.3658C213.45 11.3658 210.603 14.4456 210.603 18.2477C210.603 18.7792 210.659 19.3105 210.767 19.8147C205.485 19.5285 200.798 16.7894 197.664 12.6194C197.114 13.6415 196.801 14.8271 196.801 16.0808C196.801 18.4656 197.924 20.5778 199.632 21.8179C198.589 21.777 197.607 21.4638 196.749 20.9595V21.0414C196.749 24.3801 198.942 27.16 201.853 27.7869C201.315 27.9504 200.755 28.0321 200.177 28.0321C199.767 28.0321 199.367 27.9911 198.978 27.9093C199.788 30.6348 202.137 32.638 204.919 32.6789C202.743 34.5322 200 35.6363 197.022 35.6363C196.509 35.6363 196.004 35.5953 195.507 35.5408C198.32 37.4895 201.66 38.6343 205.252 38.6343C216.944 38.6343 223.338 28.141 223.338 19.0515Z" fill="white"/>
</g>
</g>
<defs>
<filter id="filter0_i_20074_6706" x="0" y="0" width="48" height="52" filterUnits="userSpaceOnUse" color-interpolation-filters="sRGB">
<feFlood flood-opacity="0" result="BackgroundImageFix"/>
<feBlend mode="normal" in="SourceGraphic" in2="BackgroundImageFix" result="shape"/>
<feColorMatrix in="SourceAlpha" type="matrix" values="0 0 0 0 0 0 0 0 0 0 0 0 0 0 0 0 0 0 127 0" result="hardAlpha"/>
<feOffset dy="4"/>
<feGaussianBlur stdDeviation="3"/>
<feComposite in2="hardAlpha" operator="arithmetic" k2="-1" k3="1"/>
<feColorMatrix type="matrix" values="0 0 0 0 0 0 0 0 0 0 0 0 0 0 0 0 0 0 0.25 0"/>
<feBlend mode="normal" in2="shape" result="effect1_innerShadow_20074_6706"/>
</filter>
<filter id="filter1_i_20074_6706" x="62" y="0" width="48" height="52" filterUnits="userSpaceOnUse" color-interpolation-filters="sRGB">
<feFlood flood-opacity="0" result="BackgroundImageFix"/>
<feBlend mode="normal" in="SourceGraphic" in2="BackgroundImageFix" result="shape"/>
<feColorMatrix in="SourceAlpha" type="matrix" values="0 0 0 0 0 0 0 0 0 0 0 0 0 0 0 0 0 0 127 0" result="hardAlpha"/>
<feOffset dy="4"/>
<feGaussianBlur stdDeviation="3"/>
<feComposite in2="hardAlpha" operator="arithmetic" k2="-1" k3="1"/>
<feColorMatrix type="matrix" values="0 0 0 0 0 0 0 0 0 0 0 0 0 0 0 0 0 0 0.25 0"/>
<feBlend mode="normal" in2="shape" result="effect1_innerShadow_20074_6706"/>
</filter>
<filter id="filter2_i_20074_6706" x="124" y="0" width="48" height="52" filterUnits="userSpaceOnUse" color-interpolation-filters="sRGB">
<feFlood flood-opacity="0" result="BackgroundImageFix"/>
<feBlend mode="normal" in="SourceGraphic" in2="BackgroundImageFix" result="shape"/>
<feColorMatrix in="SourceAlpha" type="matrix" values="0 0 0 0 0 0 0 0 0 0 0 0 0 0 0 0 0 0 127 0" result="hardAlpha"/>
<feOffset dy="4"/>
<feGaussianBlur stdDeviation="3"/>
<feComposite in2="hardAlpha" operator="arithmetic" k2="-1" k3="1"/>
<feColorMatrix type="matrix" values="0 0 0 0 0 0 0 0 0 0 0 0 0 0 0 0 0 0 0.25 0"/>
<feBlend mode="normal" in2="shape" result="effect1_innerShadow_20074_6706"/>
</filter>
<filter id="filter3_i_20074_6706" x="186" y="0" width="48" height="52" filterUnits="userSpaceOnUse" color-interpolation-filters="sRGB">
<feFlood flood-opacity="0" result="BackgroundImageFix"/>
<feBlend mode="normal" in="SourceGraphic" in2="BackgroundImageFix" result="shape"/>
<feColorMatrix in="SourceAlpha" type="matrix" values="0 0 0 0 0 0 0 0 0 0 0 0 0 0 0 0 0 0 127 0" result="hardAlpha"/>
<feOffset dy="4"/>
<feGaussianBlur stdDeviation="3.5"/>
<feComposite in2="hardAlpha" operator="arithmetic" k2="-1" k3="1"/>
<feColorMatrix type="matrix" values="0 0 0 0 0 0 0 0 0 0 0 0 0 0 0 0 0 0 0.25 0"/>
<feBlend mode="normal" in2="shape" result="effect1_innerShadow_20074_6706"/>
</filter>
<clipPath id="clip0_20074_6706">
<rect width="48" height="48" rx="8" fill="white"/>
</clipPath>
<clipPath id="clip1_20074_6706">
<rect x="62" width="48" height="48" rx="8" fill="white"/>
</clipPath>
<clipPath id="clip2_20074_6706">
<rect x="124" width="48" height="48" rx="8" fill="white"/>
</clipPath>
<clipPath id="clip3_20074_6706">
<rect x="186" width="48" height="48" rx="8" fill="white"/>
</clipPath>
</defs>
</svg>
